<svg xmlns="http://www.w3.org/2000/svg" xmlns:xlink="http://www.w3.org/1999/xlink" width="500" zoomAndPan="magnify" viewBox="0 0 375 374.999991" height="500" preserveAspectRatio="xMidYMid meet" version="1.0"><path fill="#caddff" d="M 157.578125 16.429688 C 150.167969 18.730469 117.296875 29.445312 84.472656 57.867188 C 76.519531 64.753906 44.378906 92.585938 30.644531 130.003906 C 7.273438 193.691406 35.242188 290.585938 115.800781 329.527344 C 209.640625 374.882812 328.171875 319.054688 355.203125 244.34375 C 367.195312 211.207031 367.734375 156.261719 337.53125 120.027344 C 313.21875 90.867188 277.3125 75.492188 278.921875 47.90625 C 279.699219 34.625 284.082031 32.46875 281.292969 24.101562 C 274.6875 4.257812 209.9375 0.140625 157.578125 16.429688 " fill-opacity="1" fill-rule="nonzero"/><path fill="#99b9ff" d="M 303.964844 64.902344 C 309.035156 54.988281 321.183594 51.070312 331.097656 56.148438 C 341.015625 61.226562 344.941406 73.378906 339.871094 83.289062 C 334.800781 93.199219 322.652344 97.117188 312.738281 92.039062 C 302.820312 86.960938 298.894531 74.808594 303.964844 64.902344 Z M 299.980469 108.371094 L 306.953125 111.941406 L 312.429688 105.375 C 314.191406 105.914062 315.976562 106.300781 317.765625 106.53125 L 320.066406 114.757812 L 327.890625 114.367188 L 329.34375 105.9375 C 331.117188 105.523438 332.851562 104.964844 334.535156 104.261719 L 340.648438 110.253906 L 347.222656 106.003906 L 344.273438 97.980469 C 345.589844 96.75 346.808594 95.390625 347.925781 93.925781 L 356.214844 96.054688 L 359.78125 89.085938 L 353.207031 83.605469 C 353.746094 81.84375 354.128906 80.058594 354.359375 78.269531 L 362.585938 75.976562 L 362.191406 68.152344 L 353.757812 66.691406 C 353.34375 64.917969 352.78125 63.179688 352.082031 61.5 L 358.066406 55.390625 L 353.8125 48.8125 L 345.792969 51.757812 C 344.554688 50.4375 343.203125 49.21875 341.734375 48.101562 L 343.855469 39.816406 L 336.882812 36.246094 L 331.40625 42.8125 C 329.644531 42.277344 327.859375 41.890625 326.070312 41.660156 L 323.769531 33.429688 L 315.949219 33.820312 L 314.492188 42.25 C 312.71875 42.664062 310.984375 43.226562 309.304688 43.925781 L 303.1875 37.9375 L 296.613281 42.1875 L 299.5625 50.207031 C 298.246094 51.441406 297.027344 52.796875 295.910156 54.261719 L 287.625 52.132812 L 284.054688 59.105469 L 290.628906 64.582031 C 290.09375 66.347656 289.707031 68.128906 289.476562 69.917969 L 281.25 72.210938 L 281.644531 80.039062 L 290.078125 81.496094 C 290.492188 83.269531 291.054688 85.003906 291.753906 86.683594 L 285.773438 92.796875 L 290.027344 99.375 L 298.046875 96.429688 C 299.277344 97.75 300.636719 98.96875 302.101562 100.085938 L 299.980469 108.371094 " fill-opacity="1" fill-rule="nonzero"/><path fill="#99b9ff" d="M 254.535156 32.125 C 254.601562 24.855469 260.554688 19.023438 267.828125 19.09375 C 275.101562 19.167969 280.9375 25.117188 280.867188 32.386719 C 280.796875 39.652344 274.84375 45.484375 267.574219 45.414062 C 260.300781 45.339844 254.460938 39.390625 254.535156 32.125 Z M 264.886719 58.671875 L 270.003906 58.722656 L 271.285156 53.289062 C 272.472656 53.089844 273.625 52.796875 274.738281 52.40625 L 278.484375 56.542969 L 282.9375 54.03125 L 281.328125 48.683594 C 282.242188 47.921875 283.09375 47.09375 283.867188 46.191406 L 289.1875 47.90625 L 291.789062 43.503906 L 287.722656 39.679688 C 288.132812 38.578125 288.449219 37.429688 288.675781 36.25 L 294.136719 35.074219 L 294.183594 29.960938 L 288.75 28.679688 C 288.546875 27.492188 288.25 26.339844 287.863281 25.230469 L 292 21.488281 L 289.484375 17.035156 L 284.132812 18.640625 C 283.375 17.726562 282.542969 16.878906 281.644531 16.101562 L 283.355469 10.785156 L 278.949219 8.183594 L 275.125 12.246094 C 274.019531 11.835938 272.871094 11.519531 271.691406 11.296875 L 270.511719 5.835938 L 265.398438 5.785156 L 264.117188 11.21875 C 262.929688 11.417969 261.777344 11.714844 260.664062 12.101562 L 256.917969 7.964844 L 252.464844 10.476562 L 254.074219 15.824219 C 253.160156 16.582031 252.308594 17.417969 251.53125 18.316406 L 246.214844 16.601562 L 243.613281 21.003906 L 247.679688 24.828125 C 247.265625 25.929688 246.949219 27.078125 246.726562 28.257812 L 241.265625 29.433594 L 241.21875 34.546875 L 246.652344 35.828125 C 246.855469 37.015625 247.148438 38.167969 247.539062 39.277344 L 243.402344 43.019531 L 245.914062 47.472656 L 251.265625 45.867188 C 252.027344 46.78125 252.859375 47.628906 253.757812 48.40625 L 252.046875 53.722656 L 256.453125 56.324219 L 260.277344 52.261719 C 261.378906 52.671875 262.527344 52.992188 263.710938 53.210938 L 264.886719 58.671875 " fill-opacity="1" fill-rule="nonzero"/><path fill="#5479f7" d="M 354.269531 309.65625 L 351.378906 312.3125 C 349.175781 314.335938 346.222656 315.269531 343.386719 314.839844 L 37.199219 268.6875 C 33.128906 268.074219 31.15625 263.84375 31.113281 259.671875 L 29.070312 48.625 C 29.046875 46.136719 30.542969 36.207031 30.542969 36.207031 C 30.542969 36.207031 37.992188 30.84375 42.4375 28.777344 C 44.46875 27.835938 46.695312 27.507812 48.839844 27.824219 L 352.042969 72.679688 C 355.140625 73.140625 357.367188 75.738281 357.378906 78.914062 L 358.0625 301.117188 C 358.074219 304.316406 356.683594 307.433594 354.269531 309.65625 " fill-opacity="1" fill-rule="nonzero"/><path fill="#99b9ff" d="M 344.988281 314.316406 L 38.183594 268.925781 C 33.421875 268.222656 30 264.222656 29.984375 259.34375 L 29.308594 40.027344 C 29.300781 37.449219 31.65625 35.378906 34.167969 35.75 L 341.785156 81.257812 C 344.882812 81.714844 347.109375 84.320312 347.117188 87.492188 L 347.808594 311.832031 C 347.8125 313.332031 346.449219 314.53125 344.988281 314.316406 " fill-opacity="1" fill-rule="nonzero"/><path fill="#374955" d="M 74.339844 274.890625 C 74.308594 274.890625 74.28125 274.890625 74.25 274.886719 L 38.09375 269.535156 C 33.054688 268.792969 29.386719 264.507812 29.371094 259.347656 L 28.691406 40.027344 C 28.6875 38.609375 29.316406 37.246094 30.417969 36.296875 C 31.496094 35.359375 32.898438 34.941406 34.261719 35.144531 L 192.472656 58.550781 C 192.808594 58.597656 193.042969 58.910156 192.992188 59.246094 C 192.945312 59.585938 192.632812 59.816406 192.292969 59.765625 L 34.078125 36.359375 C 33.070312 36.214844 32.03125 36.527344 31.222656 37.226562 C 30.394531 37.941406 29.921875 38.960938 29.925781 40.023438 L 30.601562 259.34375 C 30.613281 263.886719 33.84375 267.660156 38.273438 268.320312 L 74.429688 273.667969 C 74.765625 273.714844 75 274.03125 74.949219 274.367188 C 74.902344 274.671875 74.640625 274.890625 74.339844 274.890625 " fill-opacity="1" fill-rule="nonzero"/><path fill="#374955" d="M 345.328125 314.953125 C 345.183594 314.953125 345.039062 314.945312 344.898438 314.921875 L 162.769531 287.980469 C 162.433594 287.929688 162.203125 287.617188 162.25 287.28125 C 162.300781 286.945312 162.613281 286.707031 162.953125 286.761719 L 345.078125 313.703125 C 345.589844 313.78125 346.121094 313.617188 346.527344 313.261719 C 346.957031 312.894531 347.195312 312.375 347.195312 311.832031 L 346.503906 87.492188 C 346.492188 84.640625 344.472656 82.277344 341.695312 81.867188 L 295.351562 75.011719 C 295.015625 74.960938 294.777344 74.644531 294.828125 74.3125 C 294.878906 73.972656 295.191406 73.738281 295.53125 73.792969 L 341.878906 80.648438 C 345.261719 81.148438 347.722656 84.027344 347.734375 87.488281 L 348.425781 311.832031 C 348.429688 312.730469 348.035156 313.59375 347.335938 314.195312 C 346.765625 314.6875 346.054688 314.953125 345.328125 314.953125 " fill-opacity="1" fill-rule="nonzero"/><path fill="#ffffff" d="M 183.976562 211.328125 L 43.730469 189.265625 C 40.304688 188.726562 37.855469 185.828125 37.855469 182.308594 L 37.855469 54.371094 C 37.855469 49.613281 42.222656 45.816406 46.855469 46.546875 L 187.101562 68.605469 C 190.53125 69.148438 192.980469 72.042969 192.980469 75.5625 L 192.980469 203.503906 C 192.980469 208.257812 188.609375 212.054688 183.976562 211.328125 " fill-opacity="1" fill-rule="nonzero"/><path fill="#caddff" d="M 52.746094 177.582031 L 48.757812 176.863281 C 47.007812 176.546875 45.609375 174.765625 45.613281 172.855469 L 45.648438 151.976562 C 45.652344 150.019531 47.125 148.671875 48.917969 148.988281 L 52.867188 149.683594 C 54.621094 149.992188 56.03125 151.773438 56.03125 153.6875 C 56.03125 159.015625 56.03125 169.1875 56.03125 174.59375 C 56.03125 176.558594 54.546875 177.910156 52.746094 177.582031 " fill-opacity="1" fill-rule="nonzero"/><path fill="#caddff" d="M 66.863281 179.804688 L 62.875 179.085938 C 61.125 178.769531 59.726562 176.988281 59.726562 175.078125 L 59.769531 141.019531 C 59.773438 139.058594 61.242188 137.714844 63.039062 138.03125 L 66.984375 138.71875 C 68.738281 139.027344 70.148438 140.808594 70.148438 142.726562 C 70.148438 150.433594 70.148438 168.984375 70.148438 176.816406 C 70.148438 178.785156 68.664062 180.128906 66.863281 179.804688 " fill-opacity="1" fill-rule="nonzero"/><path fill="#caddff" d="M 80.980469 182.023438 L 76.992188 181.304688 C 75.242188 180.992188 73.84375 179.207031 73.847656 177.296875 L 73.886719 150.261719 C 73.890625 148.304688 75.359375 146.957031 77.15625 147.273438 L 81.101562 147.964844 C 82.855469 148.273438 84.265625 150.054688 84.265625 151.972656 C 84.265625 158.464844 84.265625 172.4375 84.265625 179.035156 C 84.265625 181.003906 82.78125 182.351562 80.980469 182.023438 " fill-opacity="1" fill-rule="nonzero"/><path fill="#caddff" d="M 95.097656 184.246094 L 91.109375 183.527344 C 89.359375 183.210938 87.960938 181.429688 87.960938 179.519531 L 88.003906 126.335938 C 88.007812 124.378906 89.480469 123.027344 91.273438 123.34375 L 95.21875 124.039062 C 96.972656 124.34375 98.382812 126.128906 98.382812 128.042969 C 98.382812 138.617188 98.382812 170.507812 98.382812 181.257812 C 98.382812 183.226562 96.902344 184.574219 95.097656 184.246094 " fill-opacity="1" fill-rule="nonzero"/><path fill="#caddff" d="M 109.214844 186.46875 L 105.226562 185.746094 C 103.476562 185.433594 102.078125 183.652344 102.078125 181.742188 L 102.121094 114.863281 C 102.125 112.902344 103.597656 111.554688 105.390625 111.871094 L 109.335938 112.5625 C 111.09375 112.867188 112.5 114.648438 112.5 116.566406 C 112.5 128.921875 112.5 170.90625 112.5 183.476562 C 112.5 185.441406 111.015625 186.792969 109.214844 186.46875 " fill-opacity="1" fill-rule="nonzero"/><path fill="#99b9ff" d="M 123.332031 188.6875 L 119.34375 187.96875 C 117.59375 187.652344 116.195312 185.871094 116.195312 183.960938 L 116.242188 106.898438 C 116.242188 104.9375 117.714844 103.589844 119.511719 103.90625 L 123.453125 104.597656 C 125.210938 104.90625 126.617188 106.6875 126.617188 108.601562 C 126.617188 122.179688 126.617188 171.882812 126.617188 185.695312 C 126.617188 187.664062 125.136719 189.015625 123.332031 188.6875 " fill-opacity="1" fill-rule="nonzero"/><path fill="#caddff" d="M 137.449219 190.910156 L 133.460938 190.191406 C 131.710938 189.875 130.3125 188.09375 130.3125 186.183594 L 130.359375 131.441406 C 130.359375 129.480469 131.832031 128.132812 133.628906 128.449219 L 137.574219 129.140625 C 139.328125 129.449219 140.734375 131.230469 140.734375 133.148438 C 140.734375 143.933594 140.734375 176.953125 140.734375 187.917969 C 140.734375 189.886719 139.253906 191.234375 137.449219 190.910156 " fill-opacity="1" fill-rule="nonzero"/><path fill="#caddff" d="M 151.570312 193.132812 L 147.578125 192.410156 C 145.828125 192.09375 144.429688 190.316406 144.429688 188.40625 L 144.476562 115.761719 C 144.476562 113.800781 145.949219 112.453125 147.746094 112.769531 L 151.6875 113.460938 C 153.445312 113.769531 154.851562 115.550781 154.851562 117.464844 C 154.851562 130.527344 154.851562 176.859375 154.851562 190.140625 C 154.851562 192.109375 153.371094 193.457031 151.570312 193.132812 " fill-opacity="1" fill-rule="nonzero"/><path fill="#caddff" d="M 165.683594 195.351562 L 161.695312 194.632812 C 159.945312 194.316406 158.546875 192.535156 158.546875 190.625 L 158.59375 96.164062 C 158.59375 94.207031 160.066406 92.855469 161.863281 93.171875 L 165.808594 93.863281 C 167.5625 94.171875 168.96875 95.953125 168.96875 97.871094 C 168.96875 113.382812 168.96875 176.582031 168.96875 192.359375 C 168.96875 194.328125 167.488281 195.675781 165.683594 195.351562 " fill-opacity="1" fill-rule="nonzero"/><path fill="#99b9ff" d="M 179.996094 197.601562 L 176.003906 196.882812 C 174.253906 196.566406 172.855469 194.785156 172.855469 192.875 L 172.902344 83.753906 C 172.902344 81.796875 174.375 80.449219 176.171875 80.765625 L 180.117188 81.457031 C 181.871094 81.761719 183.277344 83.542969 183.277344 85.460938 C 183.277344 102.472656 183.277344 177.300781 183.277344 194.609375 C 183.277344 196.578125 181.796875 197.925781 179.996094 197.601562 " fill-opacity="1" fill-rule="nonzero"/><path fill="#ffffff" d="M 192.960938 281.917969 L 136.773438 272.9375 C 134.984375 272.648438 133.535156 270.878906 133.535156 268.984375 L 133.535156 213.105469 C 133.535156 211.207031 134.984375 209.902344 136.773438 210.191406 L 192.960938 219.171875 C 194.75 219.457031 196.199219 221.230469 196.199219 223.125 L 196.199219 279.003906 C 196.199219 280.898438 194.75 282.207031 192.960938 281.917969 " fill-opacity="1" fill-rule="nonzero"/><path fill="#99b9ff" d="M 148.46875 270.046875 L 142.851562 269.148438 L 142.851562 228.804688 L 148.46875 229.703125 L 148.46875 270.046875 " fill-opacity="1" fill-rule="nonzero"/><path fill="#caddff" d="M 148.46875 270.046875 L 142.851562 269.148438 L 142.851562 243.121094 L 148.46875 244.019531 L 148.46875 270.046875 " fill-opacity="1" fill-rule="nonzero"/><path fill="#99b9ff" d="M 158.996094 271.730469 L 153.382812 270.832031 L 153.382812 236.4375 L 158.996094 237.335938 L 158.996094 271.730469 " fill-opacity="1" fill-rule="nonzero"/><path fill="#caddff" d="M 158.996094 271.730469 L 153.382812 270.832031 L 153.382812 251.125 L 158.996094 252.023438 L 158.996094 271.730469 " fill-opacity="1" fill-rule="nonzero"/><path fill="#99b9ff" d="M 168.824219 273.488281 L 163.207031 272.589844 L 163.207031 241.355469 L 168.824219 242.253906 L 168.824219 273.488281 " fill-opacity="1" fill-rule="nonzero"/><path fill="#caddff" d="M 168.824219 273.488281 L 163.207031 272.589844 L 163.207031 258.089844 L 168.824219 258.988281 L 168.824219 273.488281 " fill-opacity="1" fill-rule="nonzero"/><path fill="#99b9ff" d="M 178.914062 275.472656 L 173.300781 274.574219 L 173.300781 234.230469 L 178.914062 235.128906 L 178.914062 275.472656 " fill-opacity="1" fill-rule="nonzero"/><path fill="#caddff" d="M 178.914062 275.472656 L 173.300781 274.574219 L 173.300781 240.925781 L 178.914062 241.824219 L 178.914062 275.472656 " fill-opacity="1" fill-rule="nonzero"/><path fill="#99b9ff" d="M 189.09375 276.914062 L 183.476562 276.019531 L 183.476562 238.460938 L 189.09375 239.359375 L 189.09375 276.914062 " fill-opacity="1" fill-rule="nonzero"/><path fill="#caddff" d="M 189.09375 276.914062 L 183.476562 276.019531 L 183.476562 251.289062 L 189.09375 252.1875 L 189.09375 276.914062 " fill-opacity="1" fill-rule="nonzero"/><path fill="#5479f7" d="M 192.605469 278.046875 C 192.570312 278.046875 192.539062 278.042969 192.507812 278.039062 L 138.085938 269.335938 C 136.964844 269.160156 136.09375 268.101562 136.101562 266.933594 L 136.3125 219.253906 C 136.3125 218.917969 136.589844 218.640625 136.929688 218.640625 C 137.269531 218.644531 137.546875 218.921875 137.542969 219.261719 L 137.332031 266.9375 C 137.328125 267.496094 137.761719 268.039062 138.277344 268.121094 L 192.703125 276.820312 C 193.035156 276.875 193.265625 277.191406 193.210938 277.527344 C 193.160156 277.832031 192.902344 278.046875 192.605469 278.046875 " fill-opacity="1" fill-rule="nonzero"/><path fill="#99b9ff" d="M 159.550781 221.0625 L 142.675781 218.367188 L 142.675781 215.203125 L 159.550781 217.902344 L 159.550781 221.0625 " fill-opacity="1" fill-rule="nonzero"/><path fill="#99b9ff" d="M 159.609375 225.90625 L 142.734375 223.207031 L 142.734375 220.046875 L 159.609375 222.746094 L 159.609375 225.90625 " fill-opacity="1" fill-rule="nonzero"/><path fill="#caddff" d="M 123.46875 225.425781 L 36.863281 211.535156 L 36.863281 202.585938 L 123.46875 216.476562 L 123.46875 225.425781 " fill-opacity="1" fill-rule="nonzero"/><path fill="#caddff" d="M 123.875 239.78125 L 37.269531 225.886719 L 37.269531 216.9375 L 123.875 230.832031 L 123.875 239.78125 " fill-opacity="1" fill-rule="nonzero"/><path fill="#caddff" d="M 124.007812 254.664062 L 37.40625 240.773438 L 37.40625 231.828125 L 124.007812 245.71875 L 124.007812 254.664062 " fill-opacity="1" fill-rule="nonzero"/><path fill="#caddff" d="M 124.007812 268.523438 L 37.40625 254.628906 L 37.40625 245.679688 L 124.007812 259.574219 L 124.007812 268.523438 " fill-opacity="1" fill-rule="nonzero"/><path fill="#caddff" d="M 268.964844 161.683594 L 202.121094 152.464844 L 202.121094 145.144531 L 268.964844 154.359375 L 268.964844 161.683594 " fill-opacity="1" fill-rule="nonzero"/><path fill="#caddff" d="M 269.113281 175.300781 L 202.269531 166.082031 L 202.269531 158.761719 L 269.113281 167.976562 L 269.113281 175.300781 " fill-opacity="1" fill-rule="nonzero"/><path fill="#caddff" d="M 338.570312 287.578125 L 271.726562 278.359375 L 271.726562 271.039062 L 338.570312 280.253906 L 338.570312 287.578125 " fill-opacity="1" fill-rule="nonzero"/><path fill="#caddff" d="M 338.71875 301.195312 L 271.875 291.980469 L 271.875 284.65625 L 338.71875 293.875 L 338.71875 301.195312 " fill-opacity="1" fill-rule="nonzero"/><path fill="#caddff" d="M 338.148438 258.601562 L 271.308594 249.386719 L 271.308594 242.0625 L 338.148438 251.28125 L 338.148438 258.601562 " fill-opacity="1" fill-rule="nonzero"/><path fill="#caddff" d="M 338.296875 272.21875 L 271.457031 263.003906 L 271.457031 255.683594 L 338.296875 264.898438 L 338.296875 272.21875 " fill-opacity="1" fill-rule="nonzero"/><path fill="#ffffff" d="M 317.640625 189.519531 C 311.554688 184.160156 310.941406 174.855469 316.265625 168.734375 C 321.59375 162.613281 330.84375 161.996094 336.929688 167.355469 C 343.015625 172.710938 343.632812 182.015625 338.304688 188.136719 C 332.976562 194.257812 323.726562 194.875 317.640625 189.519531 " fill-opacity="1" fill-rule="nonzero"/><path fill="#5479f7" d="M 332.464844 175.691406 C 332.464844 178.667969 330.050781 181.082031 327.070312 181.082031 C 324.09375 181.082031 321.679688 178.667969 321.679688 175.691406 C 321.679688 172.710938 324.09375 170.296875 327.070312 170.296875 C 330.050781 170.296875 332.464844 172.710938 332.464844 175.691406 " fill-opacity="1" fill-rule="nonzero"/><path fill="#5479f7" d="M 338.078125 188.171875 C 335.769531 184.550781 331.71875 182.148438 327.097656 182.148438 C 322.566406 182.148438 318.578125 184.460938 316.25 187.964844 C 316.558594 188.332031 316.882812 188.691406 317.222656 189.03125 C 323.320312 195.097656 332.464844 194.640625 338.078125 188.171875 " fill-opacity="1" fill-rule="nonzero"/><path fill="#374955" d="M 318.042969 189.058594 C 320.863281 191.539062 324.46875 192.765625 328.210938 192.519531 C 331.949219 192.269531 335.371094 190.570312 337.835938 187.734375 C 342.933594 181.878906 342.34375 172.945312 336.519531 167.816406 C 333.703125 165.335938 330.097656 164.105469 326.359375 164.355469 C 322.617188 164.605469 319.199219 166.304688 316.726562 169.140625 C 311.632812 174.996094 312.222656 183.933594 318.042969 189.058594 Z M 327.261719 193.78125 C 323.566406 193.78125 320.039062 192.453125 317.230469 189.980469 C 310.902344 184.410156 310.261719 174.699219 315.800781 168.335938 C 318.484375 165.246094 322.207031 163.394531 326.277344 163.128906 C 330.34375 162.855469 334.265625 164.195312 337.335938 166.894531 C 343.664062 172.464844 344.308594 182.175781 338.765625 188.542969 C 336.082031 191.628906 332.359375 193.476562 328.292969 193.75 C 327.949219 193.769531 327.605469 193.78125 327.261719 193.78125 " fill-opacity="1" fill-rule="nonzero"/><path fill="#ffffff" d="M 310.3125 152.292969 C 304.226562 146.9375 303.613281 137.632812 308.9375 131.511719 C 314.265625 125.394531 323.519531 124.773438 329.605469 130.128906 C 335.6875 135.488281 336.304688 144.792969 330.976562 150.914062 C 325.652344 157.035156 316.398438 157.652344 310.3125 152.292969 " fill-opacity="1" fill-rule="nonzero"/><path fill="#5479f7" d="M 325.136719 138.46875 C 325.136719 141.445312 322.722656 143.859375 319.742188 143.859375 C 316.765625 143.859375 314.351562 141.445312 314.351562 138.46875 C 314.351562 135.492188 316.765625 133.074219 319.742188 133.074219 C 322.722656 133.074219 325.136719 135.492188 325.136719 138.46875 " fill-opacity="1" fill-rule="nonzero"/><path fill="#5479f7" d="M 330.75 150.949219 C 328.441406 147.328125 324.386719 144.925781 319.769531 144.925781 C 315.238281 144.925781 311.25 147.238281 308.921875 150.746094 C 309.230469 151.113281 309.550781 151.46875 309.898438 151.808594 C 315.992188 157.871094 325.136719 157.414062 330.75 150.949219 " fill-opacity="1" fill-rule="nonzero"/><path fill="#374955" d="M 310.71875 151.835938 C 313.539062 154.316406 317.152344 155.546875 320.882812 155.292969 C 324.625 155.042969 328.042969 153.347656 330.511719 150.507812 C 335.609375 144.652344 335.019531 135.71875 329.195312 130.59375 C 326.378906 128.109375 322.769531 126.882812 319.035156 127.132812 C 315.292969 127.378906 311.875 129.078125 309.402344 131.917969 C 304.308594 137.773438 304.898438 146.707031 310.71875 151.835938 Z M 319.9375 156.558594 C 316.242188 156.558594 312.710938 155.226562 309.90625 152.757812 C 303.578125 147.183594 302.933594 137.472656 308.472656 131.109375 C 311.160156 128.019531 314.882812 126.171875 318.949219 125.902344 C 323.019531 125.632812 326.945312 126.96875 330.007812 129.667969 C 336.339844 135.242188 336.980469 144.953125 331.441406 151.316406 C 328.753906 154.40625 325.035156 156.253906 320.964844 156.523438 C 320.621094 156.546875 320.277344 156.558594 319.9375 156.558594 " fill-opacity="1" fill-rule="nonzero"/><path fill="#ffffff" d="M 280.226562 129.566406 C 274.140625 124.210938 273.523438 114.90625 278.851562 108.785156 C 284.179688 102.664062 293.429688 102.042969 299.519531 107.402344 C 305.601562 112.757812 306.21875 122.0625 300.890625 128.183594 C 295.5625 134.304688 286.3125 134.925781 280.226562 129.566406 " fill-opacity="1" fill-rule="nonzero"/><path fill="#5479f7" d="M 295.050781 115.738281 C 295.050781 118.71875 292.632812 121.132812 289.65625 121.132812 C 286.679688 121.132812 284.265625 118.71875 284.265625 115.738281 C 284.265625 112.761719 286.679688 110.347656 289.65625 110.347656 C 292.632812 110.347656 295.050781 112.761719 295.050781 115.738281 " fill-opacity="1" fill-rule="nonzero"/><path fill="#5479f7" d="M 300.664062 128.21875 C 298.355469 124.601562 294.300781 122.195312 289.683594 122.195312 C 285.152344 122.195312 281.160156 124.507812 278.832031 128.015625 C 279.140625 128.382812 279.464844 128.742188 279.808594 129.082031 C 285.902344 135.144531 295.054688 134.691406 300.664062 128.21875 " fill-opacity="1" fill-rule="nonzero"/><path fill="#374955" d="M 280.632812 129.105469 C 283.449219 131.585938 287.058594 132.8125 290.796875 132.566406 C 294.535156 132.316406 297.953125 130.617188 300.425781 127.78125 C 305.523438 121.925781 304.929688 112.992188 299.109375 107.867188 C 296.289062 105.382812 292.679688 104.15625 288.945312 104.402344 C 285.203125 104.652344 281.785156 106.351562 279.316406 109.191406 C 274.21875 115.042969 274.808594 123.980469 280.632812 129.105469 Z M 289.847656 133.828125 C 286.152344 133.828125 282.625 132.5 279.820312 130.03125 C 273.488281 124.457031 272.847656 114.746094 278.386719 108.378906 C 281.074219 105.292969 284.792969 103.445312 288.863281 103.175781 C 292.929688 102.90625 296.855469 104.242188 299.921875 106.941406 C 306.25 112.511719 306.894531 122.226562 301.351562 128.589844 C 298.667969 131.675781 294.949219 133.523438 290.878906 133.796875 C 290.535156 133.820312 290.1875 133.828125 289.847656 133.828125 " fill-opacity="1" fill-rule="nonzero"/><path fill="#caddff" d="M 268.839844 112.027344 C 268.839844 131.433594 253.101562 147.167969 233.695312 147.167969 C 214.289062 147.167969 198.558594 131.433594 198.558594 112.027344 C 198.558594 92.621094 214.289062 76.886719 233.695312 76.886719 C 253.101562 76.886719 268.839844 92.621094 268.839844 112.027344 " fill-opacity="1" fill-rule="nonzero"/><path fill="#5479f7" d="M 264.507812 112.027344 C 264.507812 131.433594 248.777344 147.167969 229.367188 147.167969 C 209.960938 147.167969 194.226562 131.433594 194.226562 112.027344 C 194.226562 92.621094 209.960938 76.886719 229.367188 76.886719 C 248.777344 76.886719 264.507812 92.621094 264.507812 112.027344 " fill-opacity="1" fill-rule="nonzero"/><path fill="#374955" d="M 229.367188 77.503906 C 210.328125 77.503906 194.84375 92.992188 194.84375 112.027344 C 194.84375 131.066406 210.328125 146.550781 229.367188 146.550781 C 248.402344 146.550781 263.890625 131.066406 263.890625 112.027344 C 263.890625 92.992188 248.402344 77.503906 229.367188 77.503906 Z M 229.367188 147.785156 C 209.652344 147.785156 193.609375 131.746094 193.609375 112.027344 C 193.609375 92.3125 209.652344 76.273438 229.367188 76.273438 C 249.082031 76.273438 265.125 92.3125 265.125 112.027344 C 265.125 131.746094 249.082031 147.785156 229.367188 147.785156 " fill-opacity="1" fill-rule="nonzero"/><path fill="#ffffff" d="M 252.792969 112.03125 C 252.792969 124.96875 242.304688 135.457031 229.363281 135.457031 C 216.425781 135.457031 205.941406 124.96875 205.941406 112.03125 C 205.941406 99.089844 216.425781 88.601562 229.363281 88.601562 C 242.304688 88.601562 252.792969 99.089844 252.792969 112.03125 " fill-opacity="1" fill-rule="nonzero"/><path fill="#5479f7" d="M 241.082031 112.027344 C 241.082031 118.496094 235.835938 123.742188 229.367188 123.742188 C 222.898438 123.742188 217.652344 118.496094 217.652344 112.027344 C 217.652344 105.558594 222.898438 100.316406 229.367188 100.316406 C 235.835938 100.316406 241.082031 105.558594 241.082031 112.027344 " fill-opacity="1" fill-rule="nonzero"/><path fill="#ffffff" d="M 229.230469 111.367188 L 236.910156 102.761719 L 238.058594 103.910156 L 229.453125 111.589844 C 229.304688 111.722656 229.097656 111.515625 229.230469 111.367188 " fill-opacity="1" fill-rule="nonzero"/><path fill="#374955" d="M 236.933594 103.65625 L 235.054688 105.765625 L 237.160156 103.882812 Z M 229.230469 111.367188 L 229.238281 111.367188 Z M 229.691406 111.777344 Z M 229.347656 112.246094 C 229.148438 112.246094 228.953125 112.171875 228.800781 112.019531 C 228.507812 111.722656 228.496094 111.269531 228.769531 110.957031 L 236.449219 102.351562 C 236.566406 102.222656 236.722656 102.152344 236.894531 102.144531 C 237.0625 102.136719 237.226562 102.207031 237.347656 102.324219 L 238.492188 103.476562 C 238.613281 103.59375 238.679688 103.757812 238.671875 103.925781 C 238.667969 104.097656 238.59375 104.253906 238.46875 104.367188 L 229.863281 112.046875 C 229.714844 112.183594 229.53125 112.246094 229.347656 112.246094 " fill-opacity="1" fill-rule="nonzero"/><path fill="#ffffff" d="M 237.453125 104.472656 L 236.34375 103.363281 C 236.207031 103.226562 236.207031 103.003906 236.34375 102.863281 L 240.0625 99.144531 L 241.671875 100.757812 L 237.957031 104.472656 C 237.816406 104.613281 237.59375 104.613281 237.453125 104.472656 " fill-opacity="1" fill-rule="nonzero"/><path fill="#374955" d="M 240.0625 100.015625 L 237.335938 102.746094 C 237.238281 102.84375 237.179688 102.976562 237.179688 103.113281 C 237.179688 103.253906 237.238281 103.382812 237.335938 103.484375 C 237.53125 103.683594 237.875 103.683594 238.078125 103.484375 L 240.804688 100.757812 Z M 237.707031 104.871094 C 237.238281 104.871094 236.796875 104.6875 236.464844 104.355469 C 236.132812 104.023438 235.949219 103.582031 235.949219 103.113281 C 235.949219 102.644531 236.132812 102.207031 236.464844 101.875 L 239.628906 98.710938 C 239.859375 98.480469 240.265625 98.480469 240.5 98.710938 L 242.109375 100.320312 C 242.226562 100.4375 242.292969 100.59375 242.292969 100.757812 C 242.292969 100.917969 242.226562 101.074219 242.109375 101.191406 L 238.945312 104.355469 C 238.613281 104.6875 238.171875 104.871094 237.707031 104.871094 " fill-opacity="1" fill-rule="nonzero"/><path fill="#ffffff" d="M 239.730469 102.144531 L 238.675781 101.09375 C 238.207031 100.621094 238.207031 99.855469 238.675781 99.382812 L 276.617188 61.445312 C 277.089844 60.972656 277.855469 60.972656 278.324219 61.445312 L 279.378906 62.496094 C 279.847656 62.964844 279.847656 63.730469 279.378906 64.207031 L 241.4375 102.144531 C 240.964844 102.613281 240.199219 102.613281 239.730469 102.144531 " fill-opacity="1" fill-rule="nonzero"/><path fill="#374955" d="M 277.472656 62.015625 C 277.128906 62.015625 276.785156 62.144531 276.523438 62.40625 L 239.636719 99.292969 C 239.382812 99.546875 239.246094 99.882812 239.246094 100.238281 C 239.246094 100.59375 239.382812 100.929688 239.636719 101.183594 C 240.140625 101.6875 241.023438 101.6875 241.527344 101.183594 L 278.417969 64.292969 C 278.9375 63.773438 278.9375 62.925781 278.414062 62.40625 C 278.152344 62.144531 277.8125 62.015625 277.472656 62.015625 Z M 240.582031 102.804688 C 239.894531 102.804688 239.253906 102.539062 238.765625 102.054688 C 238.28125 101.570312 238.015625 100.921875 238.015625 100.238281 C 238.015625 99.550781 238.28125 98.90625 238.765625 98.421875 L 275.652344 61.535156 C 276.652344 60.53125 278.285156 60.53125 279.285156 61.535156 C 280.285156 62.535156 280.285156 64.164062 279.285156 65.164062 L 242.398438 102.054688 C 241.910156 102.539062 241.265625 102.804688 240.582031 102.804688 " fill-opacity="1" fill-rule="nonzero"/><path fill="#5479f7" d="M 265.308594 72.75 L 264.167969 67.195312 C 263.71875 65.007812 264.394531 62.742188 265.976562 61.160156 L 273.054688 54.085938 C 273.308594 53.828125 273.75 53.960938 273.824219 54.316406 L 275.519531 62.542969 L 265.308594 72.75 " fill-opacity="1" fill-rule="nonzero"/><path fill="#374955" d="M 273.28125 54.730469 L 266.410156 61.601562 C 264.972656 63.035156 264.359375 65.082031 264.769531 67.074219 L 265.683594 71.507812 L 274.847656 62.34375 Z M 265.308594 73.363281 C 265.25 73.363281 265.191406 73.359375 265.132812 73.339844 C 264.914062 73.277344 264.753906 73.097656 264.703125 72.875 L 263.5625 67.324219 C 263.070312 64.925781 263.808594 62.460938 265.539062 60.726562 L 272.617188 53.652344 C 272.898438 53.371094 273.304688 53.269531 273.683594 53.382812 C 274.0625 53.496094 274.347656 53.804688 274.425781 54.195312 L 276.121094 62.417969 C 276.164062 62.621094 276.101562 62.832031 275.953125 62.976562 L 265.746094 73.1875 C 265.628906 73.300781 265.472656 73.363281 265.308594 73.363281 " fill-opacity="1" fill-rule="nonzero"/><path fill="#5479f7" d="M 268.074219 75.507812 L 273.625 76.652344 C 275.808594 77.101562 278.078125 76.421875 279.660156 74.84375 L 286.738281 67.765625 C 286.992188 67.507812 286.859375 67.066406 286.503906 66.996094 L 278.28125 65.300781 L 268.074219 75.507812 " fill-opacity="1" fill-rule="nonzero"/><path fill="#374955" d="M 269.316406 75.136719 L 273.746094 76.050781 C 275.738281 76.457031 277.785156 75.847656 279.222656 74.410156 L 286.09375 67.539062 L 278.480469 65.972656 Z M 274.96875 77.40625 C 274.480469 77.40625 273.988281 77.359375 273.5 77.257812 L 267.945312 76.113281 C 267.726562 76.066406 267.546875 75.902344 267.480469 75.6875 C 267.414062 75.46875 267.476562 75.234375 267.636719 75.074219 L 277.84375 64.867188 C 277.988281 64.722656 278.199219 64.65625 278.402344 64.699219 L 286.628906 66.394531 C 287.015625 66.472656 287.324219 66.753906 287.4375 67.136719 C 287.550781 67.515625 287.449219 67.921875 287.167969 68.203125 L 280.09375 75.277344 C 278.714844 76.65625 276.871094 77.40625 274.96875 77.40625 " fill-opacity="1" fill-rule="nonzero"/><path fill="#ffffff" d="M 277.125 68.179688 L 283.8125 69.433594 L 277.125 68.179688 " fill-opacity="1" fill-rule="nonzero"/><path fill="#374955" d="M 283.808594 70.046875 C 283.773438 70.046875 283.734375 70.046875 283.695312 70.039062 L 277.011719 68.789062 C 276.675781 68.726562 276.457031 68.402344 276.519531 68.070312 C 276.582031 67.734375 276.902344 67.515625 277.238281 67.578125 L 283.921875 68.828125 C 284.257812 68.890625 284.476562 69.210938 284.414062 69.546875 C 284.359375 69.84375 284.101562 70.046875 283.808594 70.046875 " fill-opacity="1" fill-rule="nonzero"/><path fill="#ffffff" d="M 274.40625 70.902344 L 281.089844 72.148438 L 274.40625 70.902344 " fill-opacity="1" fill-rule="nonzero"/><path fill="#374955" d="M 281.09375 72.765625 C 281.054688 72.765625 281.019531 72.761719 280.980469 72.753906 L 274.292969 71.503906 C 273.957031 71.441406 273.742188 71.121094 273.800781 70.785156 C 273.863281 70.453125 274.1875 70.230469 274.519531 70.292969 L 281.203125 71.546875 C 281.539062 71.609375 281.761719 71.929688 281.699219 72.261719 C 281.640625 72.558594 281.382812 72.765625 281.09375 72.765625 " fill-opacity="1" fill-rule="nonzero"/><path fill="#ffffff" d="M 264.230469 75.210938 L 265.609375 76.589844 L 264.230469 75.210938 " fill-opacity="1" fill-rule="nonzero"/><path fill="#374955" d="M 265.605469 77.207031 C 265.449219 77.207031 265.292969 77.148438 265.171875 77.027344 L 263.792969 75.648438 C 263.554688 75.40625 263.554688 75.019531 263.792969 74.777344 C 264.035156 74.535156 264.421875 74.535156 264.664062 74.777344 L 266.042969 76.15625 C 266.285156 76.398438 266.285156 76.789062 266.042969 77.027344 C 265.921875 77.148438 265.765625 77.207031 265.605469 77.207031 " fill-opacity="1" fill-rule="nonzero"/><path fill="#ffffff" d="M 265.824219 73.617188 L 267.203125 74.996094 L 265.824219 73.617188 " fill-opacity="1" fill-rule="nonzero"/><path fill="#374955" d="M 267.203125 75.613281 C 267.046875 75.613281 266.890625 75.550781 266.765625 75.433594 L 265.386719 74.050781 C 265.148438 73.8125 265.148438 73.421875 265.386719 73.183594 C 265.628906 72.941406 266.019531 72.941406 266.257812 73.183594 L 267.640625 74.5625 C 267.878906 74.800781 267.878906 75.191406 267.640625 75.433594 C 267.519531 75.550781 267.359375 75.613281 267.203125 75.613281 " fill-opacity="1" fill-rule="nonzero"/><path fill="#ffffff" d="M 267.421875 72.019531 L 268.796875 73.402344 L 267.421875 72.019531 " fill-opacity="1" fill-rule="nonzero"/><path fill="#374955" d="M 268.796875 74.015625 C 268.640625 74.015625 268.484375 73.957031 268.363281 73.835938 L 266.984375 72.457031 C 266.742188 72.214844 266.742188 71.828125 266.984375 71.585938 C 267.226562 71.34375 267.617188 71.34375 267.855469 71.585938 L 269.234375 72.964844 C 269.476562 73.207031 269.476562 73.597656 269.234375 73.835938 C 269.113281 73.957031 268.957031 74.015625 268.796875 74.015625 " fill-opacity="1" fill-rule="nonzero"/><path fill="#374955" d="M 213.019531 13.40625 C 211.421875 13.40625 210.125 14.703125 210.125 16.296875 C 210.125 17.890625 211.421875 19.1875 213.019531 19.1875 C 214.609375 19.1875 215.90625 17.890625 215.90625 16.296875 C 215.90625 14.703125 214.609375 13.40625 213.019531 13.40625 Z M 213.019531 20.421875 C 210.746094 20.421875 208.894531 18.570312 208.894531 16.296875 C 208.894531 14.023438 210.746094 12.175781 213.019531 12.175781 C 215.292969 12.175781 217.136719 14.023438 217.136719 16.296875 C 217.136719 18.570312 215.292969 20.421875 213.019531 20.421875 " fill-opacity="1" fill-rule="nonzero"/><path fill="#374955" d="M 154.25 321.226562 C 154.191406 321.226562 154.125 321.21875 154.066406 321.195312 C 150.542969 320.082031 147.027344 318.800781 143.613281 317.390625 C 143.296875 317.261719 143.148438 316.898438 143.277344 316.585938 C 143.40625 316.273438 143.765625 316.121094 144.082031 316.25 C 147.464844 317.648438 150.949219 318.917969 154.4375 320.023438 C 154.761719 320.125 154.941406 320.472656 154.835938 320.796875 C 154.753906 321.058594 154.511719 321.226562 154.25 321.226562 " fill-opacity="1" fill-rule="nonzero"/><path fill="#374955" d="M 194.421875 327.417969 C 193.972656 327.417969 193.53125 327.414062 193.082031 327.410156 C 179.765625 327.277344 166.640625 325.1875 154.066406 321.195312 C 153.742188 321.09375 153.5625 320.75 153.664062 320.425781 C 153.769531 320.101562 154.113281 319.921875 154.4375 320.023438 C 166.894531 323.976562 179.902344 326.046875 193.09375 326.175781 C 201.34375 326.257812 209.609375 325.574219 217.660156 324.144531 C 217.996094 324.082031 218.316406 324.304688 218.375 324.640625 C 218.4375 324.976562 218.214844 325.296875 217.878906 325.355469 C 210.1875 326.722656 202.300781 327.417969 194.421875 327.417969 " fill-opacity="1" fill-rule="nonzero"/><path fill="#374955" d="M 138.730469 328.492188 C 138.65625 328.492188 138.578125 328.476562 138.503906 328.445312 C 136.722656 327.730469 134.925781 326.972656 133.164062 326.179688 C 132.855469 326.039062 132.714844 325.675781 132.855469 325.367188 C 132.996094 325.054688 133.359375 324.917969 133.667969 325.058594 C 135.414062 325.839844 137.195312 326.59375 138.960938 327.304688 C 139.277344 327.429688 139.429688 327.789062 139.304688 328.105469 C 139.207031 328.34375 138.976562 328.492188 138.730469 328.492188 " fill-opacity="1" fill-rule="nonzero"/><path fill="#374955" d="M 190.613281 338.464844 C 190.144531 338.464844 189.675781 338.460938 189.210938 338.457031 C 171.722656 338.285156 154.660156 334.914062 138.503906 328.445312 C 138.1875 328.320312 138.035156 327.960938 138.160156 327.644531 C 138.285156 327.328125 138.644531 327.175781 138.960938 327.304688 C 154.976562 333.714844 171.886719 337.054688 189.222656 337.226562 C 199.132812 337.328125 209.039062 336.371094 218.675781 334.386719 C 219.011719 334.316406 219.332031 334.535156 219.402344 334.867188 C 219.472656 335.199219 219.253906 335.523438 218.921875 335.59375 C 209.65625 337.5 200.140625 338.464844 190.613281 338.464844 " fill-opacity="1" fill-rule="nonzero"/><path fill="#374955" d="M 230.390625 326.546875 C 230.234375 326.546875 230.082031 326.558594 229.925781 326.582031 C 228.257812 326.835938 227.113281 328.398438 227.367188 330.0625 C 227.621094 331.726562 229.183594 332.871094 230.847656 332.621094 C 232.511719 332.367188 233.660156 330.804688 233.40625 329.140625 C 233.175781 327.628906 231.867188 326.546875 230.390625 326.546875 Z M 230.382812 333.886719 C 228.304688 333.886719 226.472656 332.367188 226.148438 330.246094 C 225.792969 327.910156 227.402344 325.722656 229.738281 325.363281 C 232.074219 325 234.265625 326.617188 234.621094 328.949219 C 234.980469 331.289062 233.371094 333.480469 231.03125 333.835938 C 230.816406 333.871094 230.597656 333.886719 230.382812 333.886719 " fill-opacity="1" fill-rule="nonzero"/><path fill="#374955" d="M 117.316406 319.292969 L 125.324219 322.691406 L 124.066406 314.4375 Z M 126.101562 324.304688 C 126.019531 324.304688 125.9375 324.289062 125.859375 324.253906 L 115.828125 320 C 115.621094 319.914062 115.480469 319.722656 115.453125 319.5 C 115.429688 319.28125 115.527344 319.0625 115.707031 318.933594 L 124.160156 312.851562 C 124.335938 312.726562 124.5625 312.703125 124.761719 312.785156 C 124.957031 312.867188 125.097656 313.046875 125.128906 313.257812 L 126.710938 323.59375 C 126.742188 323.816406 126.65625 324.039062 126.480469 324.175781 C 126.371094 324.261719 126.234375 324.304688 126.101562 324.304688 " fill-opacity="1" fill-rule="nonzero"/><path fill="#374955" d="M 134.527344 34.597656 C 134.316406 34.597656 134.109375 34.488281 133.996094 34.292969 C 133.824219 34 133.921875 33.621094 134.214844 33.449219 C 148.035156 25.296875 162.859375 19.71875 178.273438 16.863281 C 178.609375 16.800781 178.929688 17.023438 178.992188 17.359375 C 179.054688 17.691406 178.832031 18.015625 178.496094 18.078125 C 163.226562 20.902344 148.535156 26.433594 134.839844 34.511719 C 134.742188 34.570312 134.632812 34.597656 134.527344 34.597656 " fill-opacity="1" fill-rule="nonzero"/><path fill="#374955" d="M 161.265625 32.78125 C 161.039062 32.78125 160.816406 32.652344 160.710938 32.429688 C 160.566406 32.125 160.695312 31.757812 161 31.609375 C 171.320312 26.652344 182.164062 23.105469 193.230469 21.054688 C 193.566406 20.992188 193.882812 21.210938 193.945312 21.546875 C 194.007812 21.882812 193.789062 22.203125 193.453125 22.265625 C 182.492188 24.292969 171.753906 27.8125 161.535156 32.71875 C 161.445312 32.761719 161.359375 32.78125 161.265625 32.78125 " fill-opacity="1" fill-rule="nonzero"/><path fill="#ffffff" d="M 49.664062 318.824219 L 50.652344 328.246094 L 57.023438 328.996094 L 57.023438 317.820312 L 49.664062 318.824219 " fill-opacity="1" fill-rule="nonzero"/><path fill="#374955" d="M 51.214844 327.691406 L 56.410156 328.300781 L 56.410156 318.527344 L 50.339844 319.355469 Z M 57.023438 329.609375 C 57 329.609375 56.976562 329.609375 56.953125 329.605469 L 50.582031 328.859375 C 50.296875 328.828125 50.070312 328.597656 50.042969 328.3125 L 49.050781 318.886719 C 49.015625 318.558594 49.25 318.261719 49.582031 318.214844 L 56.941406 317.210938 C 57.117188 317.1875 57.296875 317.238281 57.429688 317.359375 C 57.5625 317.472656 57.640625 317.644531 57.640625 317.820312 L 57.640625 328.996094 C 57.640625 329.171875 57.566406 329.335938 57.433594 329.453125 C 57.320312 329.554688 57.175781 329.609375 57.023438 329.609375 " fill-opacity="1" fill-rule="nonzero"/><path fill="#5479f7" d="M 58.027344 345.398438 C 55.375 345.773438 51.019531 346.101562 45.90625 345.394531 C 44.230469 345.160156 43.121094 343.539062 43.527344 341.894531 C 44.652344 337.320312 46.589844 328.644531 49.917969 324.621094 L 50.746094 326.800781 L 51.886719 324.75 C 52.042969 324.46875 52.324219 324.277344 52.644531 324.234375 L 55.144531 323.921875 C 55.667969 323.855469 56.152344 324.199219 56.261719 324.714844 L 56.660156 326.605469 L 57.53125 324.121094 L 60.441406 342.210938 C 60.644531 343.753906 59.570312 345.183594 58.027344 345.398438 " fill-opacity="1" fill-rule="nonzero"/><path fill="#374955" d="M 49.742188 325.890625 C 47.105469 329.785156 45.410156 336.757812 44.367188 341.050781 L 44.125 342.042969 C 43.972656 342.664062 44.085938 343.292969 44.445312 343.824219 C 44.796875 344.347656 45.363281 344.695312 45.992188 344.785156 C 50.988281 345.476562 55.246094 345.167969 57.941406 344.789062 C 59.144531 344.621094 59.992188 343.5 59.832031 342.292969 L 57.308594 326.617188 L 57.242188 326.8125 C 57.148438 327.070312 56.898438 327.238281 56.621094 327.222656 C 56.34375 327.203125 56.113281 327.003906 56.058594 326.734375 L 55.660156 324.84375 C 55.617188 324.640625 55.425781 324.507812 55.222656 324.53125 L 52.722656 324.847656 C 52.597656 324.863281 52.488281 324.9375 52.425781 325.046875 L 51.285156 327.101562 C 51.167969 327.3125 50.941406 327.4375 50.699219 327.417969 C 50.460938 327.398438 50.253906 327.242188 50.167969 327.019531 Z M 58.027344 345.398438 L 58.03125 345.398438 Z M 52.003906 346.425781 C 50.132812 346.425781 48.046875 346.3125 45.824219 346.003906 C 44.847656 345.867188 43.976562 345.328125 43.425781 344.515625 C 42.875 343.703125 42.695312 342.699219 42.925781 341.75 L 43.167969 340.761719 C 44.324219 336.019531 46.253906 328.085938 49.445312 324.230469 C 49.585938 324.058594 49.804688 323.976562 50.019531 324.011719 C 50.238281 324.050781 50.417969 324.195312 50.496094 324.402344 L 50.851562 325.34375 L 51.351562 324.449219 C 51.601562 324 52.054688 323.691406 52.566406 323.625 L 55.066406 323.308594 C 55.820312 323.214844 56.539062 323.664062 56.796875 324.355469 L 56.953125 323.917969 C 57.042969 323.652344 57.308594 323.484375 57.585938 323.507812 C 57.867188 323.535156 58.097656 323.746094 58.140625 324.023438 L 61.050781 342.113281 C 61.300781 344.007812 59.980469 345.746094 58.113281 346.007812 C 56.542969 346.230469 54.453125 346.425781 52.003906 346.425781 " fill-opacity="1" fill-rule="nonzero"/><path fill="#374955" d="M 50.644531 343.394531 C 48.929688 343.394531 47.074219 343.242188 45.222656 342.820312 C 44.890625 342.746094 44.683594 342.414062 44.757812 342.085938 C 44.835938 341.753906 45.167969 341.546875 45.496094 341.621094 C 51.671875 343.027344 58.152344 341.21875 58.214844 341.199219 C 58.542969 341.105469 58.882812 341.296875 58.976562 341.621094 C 59.070312 341.949219 58.882812 342.289062 58.554688 342.382812 C 58.355469 342.441406 54.945312 343.394531 50.644531 343.394531 " fill-opacity="1" fill-rule="nonzero"/><path fill="#374955" d="M 49.125 336.390625 C 48.796875 336.390625 48.523438 336.125 48.511719 335.792969 C 48.5 335.453125 48.765625 335.167969 49.105469 335.15625 L 55.078125 334.960938 C 55.414062 334.945312 55.703125 335.214844 55.714844 335.554688 C 55.726562 335.894531 55.460938 336.179688 55.121094 336.191406 L 49.148438 336.386719 C 49.140625 336.390625 49.132812 336.390625 49.125 336.390625 " fill-opacity="1" fill-rule="nonzero"/><path fill="#ffffff" d="M 79.507812 313.808594 L 80.460938 327.558594 L 88.128906 327.558594 L 88.484375 313.808594 L 79.507812 313.808594 " fill-opacity="1" fill-rule="nonzero"/><path fill="#374955" d="M 81.039062 326.941406 L 87.527344 326.941406 L 87.855469 314.421875 L 80.167969 314.421875 Z M 88.128906 328.175781 L 80.460938 328.175781 C 80.140625 328.175781 79.871094 327.925781 79.847656 327.601562 L 78.894531 313.851562 C 78.882812 313.679688 78.941406 313.511719 79.058594 313.386719 C 79.175781 313.261719 79.335938 313.191406 79.507812 313.191406 L 88.484375 313.191406 C 88.652344 313.191406 88.8125 313.257812 88.925781 313.378906 C 89.042969 313.496094 89.105469 313.65625 89.101562 313.824219 L 88.746094 327.574219 C 88.734375 327.910156 88.464844 328.175781 88.128906 328.175781 " fill-opacity="1" fill-rule="nonzero"/><path fill="#5479f7" d="M 78.460938 335.320312 C 78.441406 336.625 79.328125 337.765625 80.597656 338.058594 C 85.003906 339.085938 94.933594 341.371094 97.765625 341.792969 C 101.441406 342.335938 105.957031 341.210938 107.902344 339.0625 C 109.84375 336.914062 103.550781 331.777344 100.566406 329.910156 C 96.128906 327.136719 91.867188 321.652344 90.082031 321.40625 C 88.296875 321.15625 84.960938 326.34375 84.960938 326.34375 L 79.507812 324.050781 C 79.507812 324.050781 78.558594 328.722656 78.460938 335.320312 " fill-opacity="1" fill-rule="nonzero"/><path fill="#374955" d="M 79.074219 335.332031 C 79.0625 336.335938 79.757812 337.234375 80.734375 337.460938 C 84.941406 338.4375 95.03125 340.761719 97.855469 341.183594 C 101.402344 341.707031 105.703125 340.574219 107.445312 338.648438 C 107.554688 338.527344 107.695312 338.316406 107.636719 337.902344 C 107.351562 335.871094 103.160156 332.261719 100.238281 330.433594 C 97.972656 329.015625 95.820312 326.972656 93.921875 325.171875 C 92.335938 323.664062 90.699219 322.113281 89.996094 322.015625 C 89.167969 321.894531 86.988281 324.332031 85.476562 326.675781 C 85.316406 326.925781 84.996094 327.023438 84.722656 326.910156 L 79.976562 324.917969 C 79.714844 326.480469 79.148438 330.375 79.074219 335.332031 Z M 99.675781 342.542969 C 99 342.542969 98.328125 342.496094 97.675781 342.402344 C 94.804688 341.972656 84.675781 339.640625 80.457031 338.660156 C 78.917969 338.300781 77.820312 336.894531 77.84375 335.3125 C 77.941406 328.734375 78.894531 323.976562 78.90625 323.929688 C 78.941406 323.75 79.058594 323.59375 79.21875 323.507812 C 79.382812 323.421875 79.574219 323.414062 79.746094 323.484375 L 84.726562 325.574219 C 85.804688 323.96875 88.332031 320.539062 90.167969 320.796875 C 91.207031 320.9375 92.527344 322.148438 94.769531 324.277344 C 96.625 326.039062 98.730469 328.039062 100.890625 329.390625 C 102.824219 330.597656 108.4375 334.726562 108.855469 337.734375 C 108.949219 338.40625 108.777344 339.011719 108.359375 339.476562 C 106.671875 341.339844 103.117188 342.542969 99.675781 342.542969 " fill-opacity="1" fill-rule="nonzero"/><path fill="#374955" d="M 99.613281 340.011719 C 91.566406 340.011719 80.835938 335.679688 80.230469 335.429688 C 79.914062 335.300781 79.765625 334.941406 79.890625 334.628906 C 80.019531 334.3125 80.382812 334.160156 80.695312 334.292969 C 80.890625 334.371094 100.15625 342.15625 105.753906 337.101562 C 106.007812 336.875 106.394531 336.894531 106.625 337.148438 C 106.851562 337.398438 106.832031 337.789062 106.578125 338.015625 C 104.96875 339.472656 102.457031 340.011719 99.613281 340.011719 " fill-opacity="1" fill-rule="nonzero"/><path fill="#374955" d="M 91.113281 331.691406 C 90.945312 331.691406 90.777344 331.621094 90.65625 331.488281 C 90.429688 331.234375 90.449219 330.847656 90.699219 330.617188 L 94.601562 327.101562 C 94.851562 326.875 95.242188 326.894531 95.46875 327.148438 C 95.699219 327.398438 95.675781 327.789062 95.425781 328.015625 L 91.527344 331.535156 C 91.410156 331.640625 91.261719 331.691406 91.113281 331.691406 " fill-opacity="1" fill-rule="nonzero"/><path fill="#374955" d="M 47.492188 224.160156 C 47.492188 224.160156 45.113281 267.148438 43.871094 281.988281 C 42.628906 296.828125 46.777344 320.683594 46.777344 320.683594 L 58.613281 320.0625 C 58.613281 320.0625 59.425781 291.058594 60.304688 283.003906 C 60.304688 283.003906 65.300781 272.085938 66.78125 262.347656 C 68.265625 252.609375 73.3125 237.226562 73.3125 237.226562 C 73.3125 237.226562 77.410156 314 77.804688 320.03125 C 77.804688 320.03125 87.085938 320.445312 90.414062 318.351562 C 90.414062 318.351562 96.308594 290.355469 95.460938 275.125 C 94.613281 259.894531 95.542969 222.054688 95.542969 222.054688 L 47.492188 224.160156 " fill-opacity="1" fill-rule="nonzero"/><path fill="#ffffff" d="M 58.125 283.617188 L 54.507812 283.617188 C 54.164062 283.617188 53.890625 283.339844 53.890625 283 C 53.890625 282.660156 54.164062 282.382812 54.507812 282.382812 L 58.125 282.382812 C 58.464844 282.382812 58.738281 282.660156 58.738281 283 C 58.738281 283.339844 58.464844 283.617188 58.125 283.617188 " fill-opacity="1" fill-rule="nonzero"/><path fill="#ffffff" d="M 83.890625 305.945312 C 83.886719 305.945312 83.882812 305.945312 83.878906 305.945312 C 83.539062 305.9375 83.269531 305.65625 83.277344 305.316406 C 83.40625 298.152344 91.230469 285.375 91.566406 284.832031 C 91.742188 284.542969 92.121094 284.453125 92.410156 284.628906 C 92.699219 284.808594 92.792969 285.1875 92.613281 285.476562 C 92.535156 285.609375 84.632812 298.511719 84.507812 305.339844 C 84.5 305.675781 84.226562 305.945312 83.890625 305.945312 " fill-opacity="1" fill-rule="nonzero"/><path fill="#ffffff" d="M 99.289062 155.40625 C 100.152344 155.339844 104.378906 164 117.613281 163.636719 C 130.847656 163.277344 141.464844 148.46875 141.464844 148.46875 C 141.464844 148.46875 146.035156 140.761719 149.503906 137.972656 C 152.972656 135.1875 153.515625 134.820312 153.515625 134.820312 C 153.515625 134.820312 154.601562 136.269531 153.515625 137.972656 C 152.429688 139.679688 149.425781 142.867188 149.425781 142.867188 C 149.425781 142.867188 152.734375 144.683594 151.242188 148.46875 C 149.527344 152.816406 144.691406 152.46875 144.691406 152.46875 C 144.691406 152.46875 134.878906 195.90625 94.328125 175.265625 L 99.289062 155.40625 " fill-opacity="1" fill-rule="nonzero"/><path fill="#374955" d="M 95.046875 174.9375 C 106.789062 180.8125 117.019531 181.785156 125.460938 177.828125 C 139.679688 171.15625 144.046875 152.519531 144.089844 152.332031 C 144.15625 152.035156 144.433594 151.828125 144.734375 151.851562 C 144.914062 151.863281 149.144531 152.105469 150.667969 148.242188 C 151.945312 145 149.242188 143.472656 149.128906 143.410156 C 148.960938 143.316406 148.847656 143.152344 148.816406 142.964844 C 148.789062 142.777344 148.847656 142.585938 148.976562 142.445312 C 149.007812 142.414062 151.953125 139.277344 152.996094 137.644531 C 153.472656 136.894531 153.425781 136.214844 153.285156 135.761719 C 152.746094 136.175781 151.738281 136.96875 149.890625 138.453125 C 146.546875 141.136719 142.039062 148.707031 141.992188 148.78125 C 141.984375 148.796875 141.976562 148.8125 141.964844 148.824219 C 141.523438 149.441406 131.015625 163.886719 117.628906 164.253906 C 106.855469 164.558594 101.941406 159.078125 99.847656 156.738281 C 99.78125 156.667969 99.714844 156.589844 99.648438 156.515625 Z M 114.4375 181.445312 C 108.238281 181.445312 101.421875 179.566406 94.050781 175.8125 C 93.792969 175.683594 93.664062 175.394531 93.730469 175.117188 L 98.691406 155.261719 C 98.757812 155 98.976562 154.816406 99.242188 154.796875 C 99.722656 154.75 100.050781 155.121094 100.765625 155.917969 C 102.746094 158.128906 107.386719 163.296875 117.597656 163.023438 C 130.148438 162.675781 140.5 148.746094 140.949219 148.128906 C 141.289062 147.558594 145.667969 140.265625 149.117188 137.492188 C 152.566406 134.722656 153.148438 134.324219 153.171875 134.308594 C 153.441406 134.125 153.8125 134.1875 154.007812 134.453125 C 154.0625 134.523438 155.335938 136.265625 154.035156 138.304688 C 153.1875 139.632812 151.269531 141.773438 150.363281 142.765625 C 151.597656 143.761719 152.949219 145.820312 151.8125 148.691406 C 150.304688 152.523438 146.554688 153.027344 145.171875 153.082031 C 144.371094 156.109375 139.445312 172.621094 125.988281 178.941406 C 122.425781 180.613281 118.570312 181.445312 114.4375 181.445312 " fill-opacity="1" fill-rule="nonzero"/><path fill="#5479f7" d="M 33.703125 175.265625 C 33.703125 175.265625 37.671875 149.632812 51.703125 143.324219 C 65.734375 137.019531 84.714844 137.898438 89.949219 141.046875 C 95.183594 144.195312 108.824219 158.433594 108.824219 158.433594 L 96.769531 175.265625 C 96.769531 175.265625 99.523438 220.570312 97.347656 232.53125 C 97.347656 232.53125 83.9375 234.09375 78.246094 231.855469 C 72.558594 229.613281 53.859375 226.476562 44.917969 230.582031 L 46.542969 173.222656 L 33.703125 175.265625 " fill-opacity="1" fill-rule="nonzero"/><path fill="#374955" d="M 57.066406 227.96875 C 65.589844 227.96875 74.785156 229.828125 78.472656 231.28125 C 83.371094 233.210938 94.433594 232.214844 96.820312 231.96875 C 98.816406 219.5625 96.183594 175.75 96.15625 175.300781 C 96.144531 175.160156 96.1875 175.023438 96.269531 174.90625 L 108.027344 158.496094 C 105.847656 156.242188 94.269531 144.363281 89.628906 141.574219 C 84.746094 138.636719 65.921875 137.609375 51.953125 143.890625 C 39.800781 149.351562 35.292969 170.082031 34.457031 174.523438 L 46.445312 172.617188 C 46.625 172.585938 46.8125 172.640625 46.949219 172.761719 C 47.085938 172.882812 47.164062 173.058594 47.15625 173.242188 L 45.558594 229.644531 C 48.710938 228.433594 52.804688 227.96875 57.066406 227.96875 Z M 87.894531 233.683594 C 84.300781 233.683594 80.492188 233.398438 78.023438 232.425781 C 72.160156 230.117188 53.671875 227.238281 45.175781 231.144531 C 44.980469 231.230469 44.753906 231.214844 44.578125 231.097656 C 44.398438 230.980469 44.296875 230.777344 44.300781 230.566406 L 45.90625 173.949219 L 33.796875 175.871094 C 33.601562 175.90625 33.40625 175.839844 33.265625 175.703125 C 33.125 175.5625 33.0625 175.363281 33.09375 175.171875 C 33.257812 174.109375 37.277344 149.132812 51.449219 142.765625 C 65.347656 136.519531 84.578125 137.097656 90.265625 140.519531 C 95.511719 143.671875 108.710938 157.425781 109.269531 158.007812 C 109.476562 158.222656 109.5 158.554688 109.324219 158.792969 L 97.398438 175.445312 C 97.625 179.261719 100.0625 221.042969 97.953125 232.640625 C 97.902344 232.90625 97.6875 233.109375 97.417969 233.140625 C 97.101562 233.179688 92.691406 233.683594 87.894531 233.683594 " fill-opacity="1" fill-rule="nonzero"/><path fill="#374955" d="M 57.238281 219.378906 C 56.949219 219.378906 56.6875 219.167969 56.632812 218.871094 C 56.574219 218.535156 56.796875 218.214844 57.132812 218.15625 C 78.304688 214.414062 84.488281 199.777344 84.550781 199.628906 C 84.679688 199.316406 85.039062 199.164062 85.351562 199.292969 C 85.667969 199.417969 85.820312 199.777344 85.691406 200.09375 C 85.628906 200.246094 79.21875 215.503906 57.347656 219.367188 C 57.3125 219.375 57.277344 219.378906 57.238281 219.378906 " fill-opacity="1" fill-rule="nonzero"/><path fill="#374955" d="M 95.753906 193.179688 L 68.453125 193.179688 L 77.003906 162.683594 L 104.304688 162.683594 L 95.753906 193.179688 " fill-opacity="1" fill-rule="nonzero"/><path fill="#ffffff" d="M 36.109375 175.363281 L 49.925781 169.1875 C 49.925781 169.1875 47.980469 192.601562 75.933594 181.789062 C 75.933594 181.789062 74.90625 178.78125 75.050781 175.265625 C 75.195312 171.75 77.296875 175.152344 77.59375 178.007812 C 77.886719 180.863281 84.449219 179.707031 88.394531 178.578125 C 92.339844 177.453125 97.515625 178.191406 88.394531 183.222656 C 79.273438 188.253906 77.273438 186.007812 77.273438 186.007812 C 77.273438 186.007812 65.625 202.308594 51.132812 198.84375 C 33.304688 194.585938 36.109375 175.363281 36.109375 175.363281 " fill-opacity="1" fill-rule="nonzero"/><path fill="#374955" d="M 36.679688 175.78125 C 36.5625 176.945312 36.28125 181.007812 37.539062 185.375 C 39.507812 192.210938 44.128906 196.539062 51.277344 198.246094 C 65.203125 201.578125 76.660156 185.808594 76.773438 185.652344 C 76.882812 185.5 77.054688 185.40625 77.242188 185.394531 C 77.429688 185.390625 77.609375 185.457031 77.734375 185.601562 C 77.738281 185.601562 79.78125 187.273438 88.097656 182.683594 C 92.953125 180.003906 92.859375 179.03125 92.859375 179.023438 C 92.675781 178.710938 90.859375 178.515625 88.5625 179.171875 C 86.6875 179.707031 80.378906 181.328125 77.96875 179.695312 C 77.390625 179.304688 77.050781 178.742188 76.980469 178.070312 C 76.824219 176.570312 76.171875 175.105469 75.746094 174.566406 C 75.710938 174.71875 75.679688 174.949219 75.664062 175.292969 C 75.527344 178.640625 76.507812 181.558594 76.519531 181.589844 C 76.625 181.902344 76.464844 182.242188 76.15625 182.363281 C 66.515625 186.089844 59.273438 186.21875 54.628906 182.746094 C 49.757812 179.097656 49.269531 172.648438 49.277344 170.152344 Z M 55.175781 199.9375 C 53.808594 199.9375 52.414062 199.785156 50.988281 199.445312 C 32.824219 195.105469 35.46875 175.472656 35.5 175.273438 C 35.53125 175.066406 35.664062 174.886719 35.855469 174.800781 L 49.675781 168.625 C 49.875 168.535156 50.105469 168.558594 50.28125 168.683594 C 50.460938 168.808594 50.558594 169.019531 50.539062 169.238281 C 50.53125 169.324219 49.917969 177.6875 55.371094 181.761719 C 59.570312 184.902344 66.234375 184.785156 75.179688 181.417969 C 74.882812 180.359375 74.320312 177.957031 74.433594 175.238281 C 74.457031 174.730469 74.519531 173.183594 75.589844 173.152344 C 75.601562 173.152344 75.609375 173.152344 75.617188 173.152344 C 76.992188 173.152344 78.03125 176.261719 78.207031 177.945312 C 78.238281 178.257812 78.382812 178.488281 78.660156 178.675781 C 80.125 179.667969 84.519531 179.046875 88.226562 177.988281 C 90.214844 177.417969 93.398438 177.101562 93.996094 178.558594 C 94.527344 179.839844 92.890625 181.445312 88.691406 183.761719 C 81.664062 187.640625 78.605469 187.320312 77.429688 186.820312 C 75.589844 189.1875 66.578125 199.9375 55.175781 199.9375 " fill-opacity="1" fill-rule="nonzero"/><path fill="#374955" d="M 72.992188 131.644531 C 71.796875 132.738281 69.464844 134.070312 67.636719 133.152344 C 66.277344 132.46875 65.519531 130.691406 65.566406 128.660156 C 64.9375 128.710938 64.109375 128.667969 63.519531 128.148438 C 62.613281 127.34375 62.785156 125.871094 62.820312 124.902344 C 62.984375 120.429688 60.386719 119.746094 61.019531 116.707031 C 61.519531 114.324219 63.394531 112.902344 63.746094 112.636719 C 65.511719 111.292969 66.710938 111.726562 69.6875 110.949219 C 74.691406 109.636719 74.847656 107.480469 78.148438 107.46875 C 78.335938 107.46875 82.824219 107.519531 84.347656 110.617188 C 85.585938 113.140625 84.140625 116.207031 82.644531 117.816406 C 80.707031 119.898438 79.316406 118.871094 77.371094 120.617188 C 73.960938 123.6875 76.535156 128.398438 72.992188 131.644531 " fill-opacity="1" fill-rule="nonzero"/><path fill="#ffffff" d="M 82.976562 123.664062 L 82.78125 123.492188 C 81.789062 122.640625 80.757812 121.648438 80.496094 120.367188 C 79.378906 114.921875 74.390625 112.949219 74.164062 117.949219 C 74.105469 119.207031 69.496094 119.140625 70.042969 120.464844 C 71.46875 123.917969 71.5 122.992188 69.488281 124.261719 C 69.261719 124.269531 69.035156 124.320312 68.820312 124.421875 C 67.789062 124.902344 67.425781 126.300781 68.003906 127.550781 C 68.359375 128.304688 68.980469 128.824219 69.644531 129.015625 L 69.644531 134.46875 C 69.644531 136.515625 68.40625 138.355469 66.515625 139.132812 L 64.671875 139.882812 C 64.671875 139.882812 73.261719 145.488281 81.976562 139.332031 L 80.8125 138.8125 C 78.765625 137.894531 77.417969 135.886719 77.347656 133.640625 L 77.339844 132.574219 C 77.925781 132.628906 78.492188 132.589844 79.019531 132.433594 C 81.457031 131.726562 82.265625 128.917969 81.851562 125.425781 L 82.84375 124.890625 C 83.304688 124.644531 83.375 124.007812 82.976562 123.664062 " fill-opacity="1" fill-rule="nonzero"/><path fill="#374955" d="M 66.097656 139.96875 C 68.484375 141.136719 74.441406 143.273438 80.703125 139.4375 L 80.5625 139.375 C 78.3125 138.367188 76.8125 136.125 76.734375 133.660156 L 76.722656 132.582031 C 76.722656 132.40625 76.792969 132.242188 76.921875 132.125 C 77.050781 132.003906 77.21875 131.945312 77.394531 131.960938 C 77.925781 132.011719 78.414062 131.96875 78.847656 131.84375 C 81.589844 131.046875 81.433594 127.140625 81.238281 125.496094 C 81.210938 125.246094 81.335938 125.003906 81.558594 124.882812 L 82.550781 124.347656 C 82.601562 124.320312 82.617188 124.277344 82.621094 124.246094 C 82.625 124.214844 82.621094 124.167969 82.578125 124.128906 L 82.378906 123.960938 C 81.335938 123.0625 80.199219 121.980469 79.894531 120.492188 C 79.230469 117.257812 77.199219 115.59375 76.058594 115.691406 C 74.992188 115.773438 74.808594 117.316406 74.777344 117.976562 C 74.730469 119.023438 73.433594 119.386719 72.183594 119.738281 C 71.683594 119.875 70.878906 120.101562 70.640625 120.296875 C 70.832031 120.765625 71 121.148438 71.136719 121.464844 C 71.820312 123.03125 72.046875 123.558594 70.664062 124.300781 C 70.4375 124.417969 70.15625 124.570312 69.820312 124.785156 C 69.726562 124.839844 69.621094 124.875 69.515625 124.878906 C 69.359375 124.882812 69.210938 124.917969 69.082031 124.980469 C 68.753906 125.132812 68.511719 125.445312 68.40625 125.855469 C 68.285156 126.304688 68.34375 126.816406 68.5625 127.289062 C 68.828125 127.851562 69.292969 128.277344 69.8125 128.421875 C 70.078125 128.5 70.257812 128.742188 70.257812 129.015625 L 70.257812 134.46875 C 70.257812 136.777344 68.878906 138.828125 66.746094 139.699219 Z M 73.167969 142.816406 C 68.125 142.816406 64.394531 140.4375 64.335938 140.398438 C 64.144531 140.273438 64.039062 140.050781 64.058594 139.824219 C 64.082031 139.597656 64.226562 139.402344 64.441406 139.3125 L 66.28125 138.5625 C 67.949219 137.878906 69.027344 136.273438 69.027344 134.46875 L 69.027344 129.4375 C 68.351562 129.121094 67.792969 128.546875 67.449219 127.808594 C 67.105469 127.078125 67.023438 126.273438 67.214844 125.542969 C 67.414062 124.769531 67.894531 124.175781 68.5625 123.863281 C 68.789062 123.757812 69.035156 123.691406 69.289062 123.660156 C 69.605469 123.46875 69.867188 123.328125 70.082031 123.210938 C 70.210938 123.144531 70.351562 123.070312 70.433594 123.015625 C 70.382812 122.816406 70.199219 122.398438 70.007812 121.957031 C 69.863281 121.617188 69.683594 121.207031 69.472656 120.703125 C 69.347656 120.390625 69.351562 120.078125 69.492188 119.792969 C 69.816406 119.121094 70.757812 118.855469 71.851562 118.550781 C 72.386719 118.402344 73.378906 118.121094 73.546875 117.890625 C 73.695312 114.875 75.433594 114.503906 75.964844 114.460938 C 77.832031 114.332031 80.328125 116.484375 81.101562 120.242188 C 81.328125 121.351562 82.292969 122.261719 83.183594 123.027344 L 83.378906 123.199219 C 83.722656 123.492188 83.894531 123.933594 83.84375 124.378906 C 83.796875 124.828125 83.53125 125.21875 83.136719 125.433594 L 82.507812 125.773438 C 82.871094 129.671875 81.671875 132.304688 79.191406 133.027344 C 78.804688 133.136719 78.394531 133.199219 77.960938 133.210938 L 77.964844 133.636719 C 78.027344 135.617188 79.246094 137.433594 81.066406 138.25 L 82.230469 138.773438 C 82.429688 138.863281 82.570312 139.054688 82.589844 139.273438 C 82.609375 139.496094 82.511719 139.710938 82.332031 139.835938 C 79.144531 142.089844 75.957031 142.816406 73.167969 142.816406 " fill-opacity="1" fill-rule="nonzero"/><path fill="#374955" d="M 77.339844 133.191406 C 77.308594 133.191406 77.277344 133.191406 77.246094 133.183594 C 73.609375 132.628906 71.972656 129.84375 71.902344 129.722656 C 71.734375 129.429688 71.835938 129.054688 72.128906 128.882812 C 72.425781 128.714844 72.800781 128.816406 72.972656 129.109375 C 72.992188 129.144531 74.40625 131.503906 77.433594 131.96875 C 77.769531 132.015625 78 132.332031 77.949219 132.667969 C 77.902344 132.972656 77.640625 133.191406 77.339844 133.191406 " fill-opacity="1" fill-rule="nonzero"/><path fill="#374955" d="M 273.832031 273.398438 C 275.101562 272.132812 275.820312 270.695312 275.820312 269.164062 C 275.820312 264.128906 268.023438 260.050781 258.402344 260.050781 C 248.78125 260.050781 240.984375 264.128906 240.984375 269.164062 C 240.984375 270.695312 241.703125 272.132812 242.972656 273.398438 C 241.703125 274.664062 240.984375 276.101562 240.984375 277.628906 C 240.984375 280.019531 242.742188 282.191406 245.613281 283.820312 C 245.550781 284.089844 245.511719 284.363281 245.511719 284.644531 C 245.511719 288.371094 251.285156 291.390625 258.402344 291.390625 C 265.523438 291.390625 271.296875 288.371094 271.296875 284.644531 C 271.296875 284.363281 271.257812 284.089844 271.195312 283.820312 C 274.066406 282.191406 275.820312 280.019531 275.820312 277.628906 C 275.820312 276.101562 275.101562 274.664062 273.832031 273.398438 " fill-opacity="1" fill-rule="nonzero"/><path fill="#ffffff" d="M 305.144531 198.625 C 305.144531 172.808594 284.21875 151.882812 258.402344 151.882812 C 232.636719 151.882812 211.832031 172.539062 211.660156 198.308594 C 211.574219 211.425781 216.894531 223.304688 225.523438 231.84375 C 231.746094 238.003906 236.285156 245.660156 238.488281 254.136719 L 238.59375 254.546875 C 240.734375 262.773438 248.160156 268.515625 256.660156 268.515625 L 260.144531 268.515625 C 268.644531 268.515625 276.074219 262.773438 278.214844 254.546875 L 278.277344 254.296875 C 280.464844 245.882812 284.816406 238.152344 291.042969 232.082031 C 299.742188 223.59375 305.144531 211.738281 305.144531 198.625 " fill-opacity="1" fill-rule="nonzero"/><path fill="#374955" d="M 258.402344 152.496094 C 233.140625 152.496094 212.445312 173.050781 212.277344 198.308594 C 212.195312 210.839844 217.050781 222.59375 225.957031 231.40625 C 232.351562 237.734375 236.890625 245.539062 239.085938 253.980469 L 239.191406 254.390625 C 241.261719 262.34375 248.445312 267.898438 256.664062 267.898438 L 260.148438 267.898438 C 268.367188 267.898438 275.550781 262.34375 277.617188 254.390625 L 277.683594 254.144531 C 279.933594 245.476562 284.40625 237.695312 290.613281 231.640625 C 299.589844 222.882812 304.53125 211.15625 304.53125 198.625 C 304.53125 173.191406 283.839844 152.496094 258.402344 152.496094 Z M 260.148438 269.132812 L 256.664062 269.132812 C 247.882812 269.132812 240.210938 263.199219 238 254.699219 L 237.894531 254.292969 C 235.753906 246.0625 231.328125 238.453125 225.089844 232.28125 C 215.949219 223.234375 210.960938 211.164062 211.046875 198.300781 C 211.128906 185.679688 216.085938 173.847656 225 164.996094 C 233.917969 156.140625 245.777344 151.265625 258.402344 151.265625 C 284.519531 151.265625 305.761719 172.507812 305.761719 198.625 C 305.761719 211.492188 300.6875 223.53125 291.472656 232.519531 C 285.425781 238.417969 281.070312 246.003906 278.875 254.453125 L 278.808594 254.699219 C 276.597656 263.199219 268.925781 269.132812 260.148438 269.132812 " fill-opacity="1" fill-rule="nonzero"/><path fill="#374955" d="M 261.652344 261.746094 C 261.335938 261.746094 261.070312 261.507812 261.039062 261.1875 C 258.683594 235.734375 270.902344 195.4375 271.023438 195.03125 C 271.125 194.707031 271.46875 194.523438 271.792969 194.625 C 272.121094 194.722656 272.304688 195.066406 272.203125 195.394531 C 272.078125 195.792969 259.933594 235.863281 262.265625 261.074219 C 262.296875 261.410156 262.046875 261.710938 261.710938 261.742188 C 261.691406 261.746094 261.671875 261.746094 261.652344 261.746094 " fill-opacity="1" fill-rule="nonzero"/><path fill="#374955" d="M 255.875 260.664062 C 255.542969 260.664062 255.265625 260.394531 255.261719 260.058594 C 254.375 211.421875 244.792969 197.53125 244.695312 197.394531 C 244.496094 197.117188 244.558594 196.734375 244.835938 196.535156 C 245.109375 196.335938 245.492188 196.398438 245.691406 196.671875 C 246.097656 197.230469 255.597656 210.886719 256.492188 260.039062 C 256.5 260.378906 256.226562 260.660156 255.886719 260.664062 C 255.882812 260.664062 255.878906 260.664062 255.875 260.664062 " fill-opacity="1" fill-rule="nonzero"/><path fill="#374955" d="M 262.355469 190.046875 C 261.859375 190.402344 260.890625 192.550781 260.988281 194.796875 C 261.046875 196.074219 261.433594 197.46875 262.019531 198.574219 C 262.589844 197.378906 262.976562 196.050781 263.105469 194.910156 C 263.359375 192.679688 262.777344 190.480469 262.355469 190.046875 Z M 254.941406 191.519531 C 254.535156 191.617188 253.707031 193.742188 253.976562 196.101562 C 254.113281 197.3125 254.558594 198.601562 255.1875 199.667969 C 256.160156 198.390625 256.734375 196.519531 256.601562 194.960938 C 256.441406 193.085938 255.316406 191.519531 254.941406 191.519531 Z M 258.253906 203.253906 C 258.203125 203.253906 258.148438 203.253906 258.09375 203.25 C 256.90625 203.195312 255.871094 202.523438 255.03125 201.558594 C 254.230469 202.167969 253.328125 202.492188 252.375 202.511719 C 249.921875 202.550781 247.558594 200.605469 246.628906 197.753906 C 246.523438 197.429688 246.699219 197.082031 247.023438 196.980469 C 247.34375 196.875 247.691406 197.046875 247.800781 197.375 C 248.542969 199.648438 250.421875 201.28125 252.289062 201.28125 C 252.308594 201.28125 252.328125 201.28125 252.351562 201.28125 C 253.148438 201.265625 253.800781 200.949219 254.300781 200.566406 C 253.449219 199.222656 252.90625 197.597656 252.75 196.238281 C 252.527344 194.265625 252.992188 191.925781 253.800781 190.914062 C 254.09375 190.542969 254.433594 190.335938 254.808594 190.296875 C 255.070312 190.265625 255.488281 190.316406 255.960938 190.707031 C 256.890625 191.46875 257.691406 193.253906 257.828125 194.855469 C 258 196.855469 257.234375 199.183594 255.925781 200.710938 C 256.585938 201.476562 257.355469 201.984375 258.152344 202.019531 C 259.355469 202.078125 260.460938 201.140625 261.324219 199.820312 C 260.378906 198.375 259.828125 196.429688 259.761719 194.855469 C 259.65625 192.480469 260.558594 190.078125 261.453125 189.214844 C 261.773438 188.902344 262.113281 188.757812 262.460938 188.785156 C 262.777344 188.8125 263.0625 188.980469 263.3125 189.28125 C 264.121094 190.261719 264.574219 192.847656 264.328125 195.046875 C 264.164062 196.515625 263.628906 198.246094 262.804688 199.742188 C 263.304688 200.3125 263.859375 200.660156 264.472656 200.652344 C 265.675781 200.636719 267.042969 199.171875 267.804688 197.097656 C 267.917969 196.777344 268.273438 196.613281 268.59375 196.730469 C 268.910156 196.847656 269.074219 197.199219 268.960938 197.519531 C 268.003906 200.144531 266.246094 201.859375 264.492188 201.882812 C 263.570312 201.890625 262.789062 201.484375 262.125 200.820312 C 261.097656 202.242188 259.777344 203.253906 258.253906 203.253906 " fill-opacity="1" fill-rule="nonzero"/><path fill="#caddff" d="M 272.71875 173.042969 C 274.199219 174.480469 275.871094 175.710938 277.292969 177.214844 C 278.820312 178.832031 280.136719 180.726562 281.355469 182.582031 C 282.535156 184.378906 283.644531 186.285156 284.457031 188.28125 C 284.828125 189.203125 285.035156 190.195312 285.304688 191.148438 C 285.714844 192.601562 286.394531 195.890625 288.363281 196.015625 C 289.457031 196.085938 290.242188 194.96875 290.746094 194.160156 C 291.636719 192.71875 292.039062 191.023438 292.167969 189.347656 C 292.4375 185.828125 291.523438 182.296875 290.140625 179.089844 C 288.707031 175.765625 286.683594 172.660156 284.15625 170.0625 C 283.113281 168.988281 281.945312 167.949219 280.660156 167.082031 C 280.625 167.050781 280.589844 167.019531 280.546875 166.992188 C 279.070312 165.875 277.449219 164.722656 275.550781 164.574219 C 274.113281 164.460938 272.558594 164.863281 271.4375 165.792969 C 268.695312 168.0625 270.726562 171.109375 272.71875 173.042969 " fill-opacity="1" fill-rule="nonzero"/><path fill="#caddff" d="M 268.664062 165.527344 C 269.273438 164.261719 269.070312 162.082031 268.09375 160.863281 C 268.085938 160.824219 268.074219 160.78125 268.050781 160.746094 C 266.34375 157.9375 262.019531 158.625 261.398438 161.902344 C 260.75 165.335938 266.785156 169.421875 268.664062 165.527344 " fill-opacity="1" fill-rule="nonzero"/><path fill="#374955" d="M 272.34375 232.644531 C 272.105469 232.644531 271.878906 232.507812 271.777344 232.277344 C 271.644531 231.964844 271.785156 231.601562 272.097656 231.464844 C 281.195312 227.523438 288.390625 219.933594 291.835938 210.644531 C 291.957031 210.328125 292.3125 210.164062 292.628906 210.28125 C 292.949219 210.398438 293.109375 210.753906 292.992188 211.074219 C 289.429688 220.675781 281.996094 228.519531 272.585938 232.59375 C 272.507812 232.632812 272.425781 232.644531 272.34375 232.644531 " fill-opacity="1" fill-rule="nonzero"/><path fill="#374955" d="M 230.238281 223.65625 C 230.070312 223.65625 229.90625 223.589844 229.785156 223.457031 C 223.386719 216.480469 219.863281 207.425781 219.863281 197.957031 C 219.863281 190.738281 221.90625 183.726562 225.773438 177.671875 C 229.535156 171.78125 234.839844 167.050781 241.117188 164 C 241.421875 163.847656 241.789062 163.980469 241.941406 164.285156 C 242.089844 164.589844 241.960938 164.957031 241.652344 165.105469 C 228.972656 171.273438 221.09375 183.859375 221.09375 197.957031 C 221.09375 207.113281 224.503906 215.878906 230.691406 222.625 C 230.921875 222.875 230.90625 223.265625 230.65625 223.496094 C 230.539062 223.601562 230.386719 223.65625 230.238281 223.65625 " fill-opacity="1" fill-rule="nonzero"/><path fill="#374955" d="M 237.285156 224.460938 C 237.164062 224.460938 237.039062 224.421875 236.929688 224.34375 C 230.460938 219.78125 225.964844 213 224.28125 205.257812 C 221.6875 193.34375 226.03125 181.253906 235.617188 173.707031 C 235.886719 173.496094 236.273438 173.542969 236.484375 173.8125 C 236.695312 174.078125 236.648438 174.464844 236.378906 174.675781 C 227.167969 181.925781 222.992188 193.546875 225.484375 204.992188 C 227.101562 212.4375 231.421875 218.953125 237.640625 223.339844 C 237.917969 223.535156 237.984375 223.921875 237.789062 224.199219 C 237.667969 224.367188 237.480469 224.460938 237.285156 224.460938 " fill-opacity="1" fill-rule="nonzero"/><path fill="#ffffff" d="M 251.839844 276.320312 C 247.402344 276.320312 244.386719 275.855469 244.320312 275.84375 C 243.984375 275.789062 243.753906 275.472656 243.808594 275.136719 C 243.863281 274.800781 244.179688 274.574219 244.515625 274.628906 C 244.667969 274.652344 259.734375 276.972656 272.125 271.007812 C 272.433594 270.859375 272.800781 270.988281 272.949219 271.296875 C 273.097656 271.601562 272.964844 271.96875 272.660156 272.117188 C 265.511719 275.558594 257.511719 276.320312 251.839844 276.320312 " fill-opacity="1" fill-rule="nonzero"/><path fill="#ffffff" d="M 253.707031 284.523438 C 250.527344 284.523438 248.335938 284.183594 248.136719 284.152344 C 247.800781 284.097656 247.570312 283.78125 247.625 283.445312 C 247.679688 283.113281 247.992188 282.882812 248.332031 282.9375 C 248.441406 282.953125 259.351562 284.632812 268.308594 280.316406 C 268.617188 280.171875 268.984375 280.300781 269.132812 280.605469 C 269.277344 280.914062 269.148438 281.28125 268.84375 281.425781 C 263.589844 283.957031 257.824219 284.523438 253.707031 284.523438 " fill-opacity="1" fill-rule="nonzero"/></svg>